<svg width="530" height="372" viewBox="0 0 530 372" fill="none" xmlns="http://www.w3.org/2000/svg">
<g clip-path="url(#clip0_73_30)">
<path d="M80 198.374C80 198.374 46.05 223.331 108.656 261.772C108.656 261.772 122.45 230.584 107.2 205.153C104.241 200.198 99.8916 196.737 94.977 195.425C90.0623 194.113 84.9232 195.042 80.5333 198.036L80 198.374Z" fill="#2836B1"/>
<path d="M80.4056 197.853C80.4056 197.853 109.472 224.914 108.661 261.752" stroke="#535461" stroke-miterlimit="10"/>
<path d="M509.528 177.584C516.406 208.211 487.067 295.464 487.067 295.464C487.067 295.464 425.333 238.547 418.45 207.92C416.65 200.577 416.072 192.869 416.753 185.251C417.433 177.632 419.357 170.256 422.411 163.555C425.466 156.855 429.589 150.966 434.539 146.234C439.49 141.501 445.166 138.022 451.237 136C457.307 133.977 463.647 133.453 469.886 134.457C476.125 135.461 482.136 137.974 487.566 141.848C492.996 145.721 497.736 150.877 501.506 157.013C505.277 163.149 508.002 170.14 509.522 177.577L509.528 177.584Z" fill="#2836B1"/>
<path opacity="0.1" d="M509.528 177.584C516.406 208.211 487.067 295.464 487.067 295.464C487.067 295.464 425.333 238.547 418.45 207.92C416.65 200.577 416.072 192.869 416.753 185.251C417.433 177.632 419.357 170.256 422.411 163.555C425.466 156.855 429.589 150.966 434.539 146.234C439.49 141.501 445.166 138.022 451.237 136C457.307 133.977 463.647 133.453 469.886 134.457C476.125 135.461 482.136 137.974 487.566 141.848C492.996 145.721 497.736 150.877 501.506 157.013C505.277 163.149 508.002 170.14 509.522 177.577L509.528 177.584Z" fill="black"/>
<path d="M451.783 137.472C451.783 137.472 490.211 208.116 487.339 295.633" stroke="#535461" stroke-miterlimit="10"/>
<path d="M519.333 233.56C519.333 233.56 484.489 210.477 488.9 295.687C488.9 295.687 517.967 294.422 528.283 265.547C530.301 259.931 530.556 253.609 529 247.78C527.445 241.95 524.187 237.018 519.844 233.919L519.333 233.56Z" fill="#2836B1"/>
<path d="M519.906 233.709C519.906 233.709 515.406 277.941 488.9 295.687" stroke="#535461" stroke-miterlimit="10"/>
<path d="M9.19964 224.062C9.19964 224.062 -24.767 249.013 37.8441 287.433C37.8441 287.433 51.6385 256.245 36.3885 230.814C33.4291 225.859 29.0802 222.398 24.1655 221.086C19.2508 219.774 14.1118 220.703 9.72187 223.697L9.19964 224.062Z" fill="#2836B1"/>
<path d="M9.5889 223.541C9.5889 223.541 38.6556 250.602 37.8445 287.44" stroke="#535461" stroke-miterlimit="10"/>
<path d="M433.017 256.542H397.322C398.144 254.531 398.57 252.314 398.567 250.068V52.1407C398.567 48.2812 397.308 44.5797 395.067 41.8506C392.826 39.1216 389.786 37.5884 386.617 37.5884H110.322C107.153 37.5884 104.113 39.1216 101.872 41.8506C99.6313 44.5797 98.3722 48.2812 98.3722 52.1407V250.075C98.3694 252.321 98.7954 254.538 99.6167 256.549H62.6611C62.2446 256.549 61.8322 256.649 61.4476 256.844C61.063 257.039 60.7137 257.324 60.42 257.684C60.1262 258.043 59.8937 258.47 59.7359 258.94C59.578 259.409 59.4978 259.912 59.5 260.419V263.524C59.5 269.234 61.3625 274.709 64.6777 278.746C67.993 282.784 72.4894 285.052 77.1778 285.052H418.5C423.188 285.052 427.685 282.784 431 278.746C434.315 274.709 436.178 269.234 436.178 263.524V260.419C436.181 259.911 436.101 259.408 435.944 258.938C435.786 258.467 435.554 258.04 435.26 257.679C434.966 257.319 434.617 257.033 434.232 256.838C433.847 256.643 433.434 256.542 433.017 256.542ZM213.078 268.855L210 264.627H285.989L282.6 268.862L213.078 268.855Z" fill="url(#paint0_linear_73_30)"/>
<path d="M382.233 40.3892H114.678C107.541 40.3892 101.756 47.4345 101.756 56.1254V246.55C101.756 255.241 107.541 262.286 114.678 262.286H382.233C389.37 262.286 395.156 255.241 395.156 246.55V56.1254C395.156 47.4345 389.37 40.3892 382.233 40.3892Z" fill="#535461"/>
<path d="M388.361 72.7344H107.933V254.012H388.361V72.7344Z" fill="white"/>
<path d="M248.15 59.9479C249.515 59.9479 250.622 58.6001 250.622 56.9374C250.622 55.2746 249.515 53.9268 248.15 53.9268C246.785 53.9268 245.678 55.2746 245.678 56.9374C245.678 58.6001 246.785 59.9479 248.15 59.9479Z" fill="white"/>
<path d="M291.444 254.384L281.811 266.42H213.889L205.183 254.384H66.8556C66.0363 254.384 65.2507 254.781 64.6714 255.486C64.0921 256.191 63.7667 257.148 63.7667 258.146V261.177C63.7667 266.757 65.587 272.109 68.8272 276.054C72.0674 280 76.4621 282.217 81.0445 282.217H414.633C416.902 282.217 419.149 281.673 421.245 280.615C423.341 279.558 425.246 278.008 426.851 276.054C428.455 274.101 429.728 271.781 430.596 269.229C431.464 266.676 431.911 263.94 431.911 261.177V258.146C431.911 257.148 431.586 256.191 431.006 255.486C430.427 254.781 429.641 254.384 428.822 254.384H291.444Z" fill="#535461"/>
<path d="M143.761 84.0188V238.215H353.15" stroke="#535461" stroke-width="2" stroke-miterlimit="10"/>
<path opacity="0.5" d="M183.906 191.582H162.289V232.201H183.906V191.582Z" fill="#2836B1"/>
<path opacity="0.7" d="M220.967 155.475H199.35V232.201H220.967V155.475Z" fill="#2836B1"/>
<path opacity="0.5" d="M258.028 177.286H236.411V232.194H258.028V177.286Z" fill="#2836B1"/>
<path opacity="0.8" d="M295.089 143.439H273.472V232.2H295.089V143.439Z" fill="#2836B1"/>
<path d="M332.15 111.845H310.533V232.194H332.15V111.845Z" fill="#2836B1"/>
<path d="M172.789 166.759L210.467 125.389L247.528 164.5L283.972 117.115L321.033 98.3074" stroke="#535461" stroke-width="2" stroke-miterlimit="10"/>
<path d="M172.789 172.023C175.176 172.023 177.111 169.666 177.111 166.759C177.111 163.852 175.176 161.496 172.789 161.496C170.402 161.496 168.467 163.852 168.467 166.759C168.467 169.666 170.402 172.023 172.789 172.023Z" fill="#2836B1"/>
<path d="M246.911 169.012C249.298 169.012 251.233 166.656 251.233 163.749C251.233 160.842 249.298 158.485 246.911 158.485C244.524 158.485 242.589 160.842 242.589 163.749C242.589 166.656 244.524 169.012 246.911 169.012Z" fill="#2836B1"/>
<path d="M284.589 122.378C286.976 122.378 288.911 120.022 288.911 117.115C288.911 114.208 286.976 111.852 284.589 111.852C282.202 111.852 280.267 114.208 280.267 117.115C280.267 120.022 282.202 122.378 284.589 122.378Z" fill="#2836B1"/>
<path d="M210.467 129.895C212.854 129.895 214.789 127.538 214.789 124.631C214.789 121.724 212.854 119.368 210.467 119.368C208.08 119.368 206.144 121.724 206.144 124.631C206.144 127.538 208.08 129.895 210.467 129.895Z" fill="#2836B1"/>
<path d="M321.033 103.571C323.42 103.571 325.356 101.215 325.356 98.3076C325.356 95.4007 323.42 93.0442 321.033 93.0442C318.646 93.0442 316.711 95.4007 316.711 98.3076C316.711 101.215 318.646 103.571 321.033 103.571Z" fill="#2836B1"/>
<path d="M481.839 260.974C479.561 260.061 476.183 259.005 473.506 259.377C470.956 258.247 464.961 255.318 460.867 250.907C460.985 246.57 460.894 242.228 460.594 237.904C458.5 208.901 463.211 189.782 463.211 189.782C463.211 189.782 466.911 175.196 466.506 163.093C466.744 163.641 466.878 163.965 466.878 163.965C467.2 153.526 470.122 142.722 472.311 135.991C472.395 135.962 472.476 135.925 472.556 135.882L475 128.819C475.195 128.407 475.349 127.969 475.461 127.514L475.856 126.397L475.739 126.336C475.778 126.154 475.817 125.958 475.856 125.761C477.417 117.717 478.633 98.6391 478.633 98.6391C482.822 78.5595 472.878 66.1654 472.878 66.1654L456 48.4807C456.084 48.7109 456.14 48.9548 456.167 49.2046L456.028 49.0558C455.789 48.2236 455.528 47.2291 455.272 46.0926C455.868 45.572 456.425 44.9903 456.939 44.3539C458.858 42.1469 460.178 39.2791 460.722 36.1339C461.049 33.6744 461.133 31.1759 460.972 28.6921L460.694 20.1609C460.682 18.4913 460.542 16.8267 460.278 15.1884C459.006 8.42305 453.311 3.68729 447.594 3.37609C445.776 3.36319 443.958 3.48066 442.15 3.72789C440.672 3.87577 439.188 3.91418 437.706 3.8429C437.537 3.85379 437.37 3.79932 437.228 3.6873C437.099 3.53103 437.025 3.31995 437.022 3.09871C436.993 2.70275 437.03 2.30371 437.131 1.92576C437.233 1.54781 437.396 1.19882 437.611 0.899964C437.835 0.661125 438.095 0.479384 438.378 0.365506L437.972 0.480516C438.172 0.28851 438.398 0.139767 438.639 0.0407715C437.157 0.358052 435.732 0.987644 434.428 1.90124C434.068 2.18874 433.738 2.52711 433.444 2.90928C432.668 3.73934 432.163 4.88273 432.022 6.12959C431.326 5.41394 430.807 4.47714 430.522 3.42345C430.434 2.99259 430.434 2.54183 430.522 2.11097C430.422 2.25981 430.326 2.41315 430.233 2.57101C430.233 2.52365 430.233 2.4763 430.233 2.42894C429.16 4.03601 428.4 5.91904 428.011 7.93594C427.862 7.71754 427.749 7.4651 427.681 7.19332C427.612 6.92154 427.588 6.63584 427.611 6.35285C427.528 6.67082 427.45 6.98879 427.378 7.30676C427.353 7.09589 427.353 6.88168 427.378 6.67081C426.724 9.10984 426.428 11.6704 426.506 14.2345C426.506 16.7918 427.439 20.7766 429.689 21.6764C429.806 21.7237 429.922 21.7576 430.044 21.7914C428.779 24.1851 428.021 26.9238 427.839 29.7619C427.657 32.6 428.055 35.4488 429 38.0531C429.944 40.6573 431.404 42.9354 433.249 44.6833C435.095 46.4312 437.267 47.5942 439.572 48.068C439.609 48.3792 439.644 48.7062 439.678 49.049H439.767C439.828 49.7256 439.878 50.4697 439.911 51.2275C439.343 51.9049 438.722 52.5123 438.056 53.0406C436.167 54.4003 434.06 55.2494 431.878 55.5302C429.272 55.7792 426.74 56.7017 424.45 58.2364C421.756 60.0698 418.783 62.7421 417.85 65.9895C416.294 71.4017 407.728 79.8246 401.983 80.8732L399.939 80.7312L399.789 80.6771V80.7244L399.289 80.6906H399.261H399.128V80.7244L398.611 80.6906C398.611 80.6906 398.561 80.9815 398.489 81.4957C395.6 80.2847 389.461 76.9291 381.472 68.1003C372.583 58.2702 360.556 60.2051 355.917 61.4432C355.759 61.4856 355.615 61.5855 355.505 61.7298C355.396 61.8741 355.324 62.0557 355.301 62.2506C355.278 62.4454 355.305 62.6441 355.377 62.8201C355.449 62.9962 355.564 63.1413 355.706 63.236C357.578 64.4876 360.478 66.3074 361.817 66.5104C361.817 66.5104 359.039 70.0487 361.994 71.9227C362.349 72.1315 362.744 72.2173 363.136 72.1707C363.528 72.1242 363.902 71.9471 364.217 71.6588C365.65 70.3802 369.633 73.2757 375.406 74.7844C375.406 74.7844 391.694 95.3105 399.783 98.4632C399.97 98.9114 400.176 99.3473 400.4 99.7689L400.9 99.7215V99.7689H401.111L401.172 100.445C401.172 100.445 413.75 99.6404 417.839 94.0792C418.128 93.7636 418.394 93.4172 418.633 93.0441L414.261 160.021H414.3L414.261 160.657H417.478C417.753 168.895 417.461 177.146 416.606 185.324V228.987C416.606 228.987 416.439 232.83 422.994 238.459C429.868 244.286 436.491 250.539 442.839 257.192L443.633 258.031C442.428 271.392 439.906 296.296 437.8 297.223L439.1 297.5C436.878 300.93 430.567 310.354 428.644 310.604C426.289 310.922 424.717 315.388 428.644 316.341C436.487 317.995 444.551 317.027 451.978 313.541C452.718 313.185 453.34 312.537 453.743 311.701C454.145 310.864 454.306 309.888 454.2 308.927L453.439 301.891C453.583 301.988 453.699 302.137 453.772 302.317C454.294 304.232 453.772 299.766 453.772 299.766C455.924 291.343 457.615 282.754 458.833 274.058L466.611 282.244C466.611 282.244 466.767 282.007 467.039 281.568C468.944 286.831 472.344 297.601 471.583 305.49C470.539 316.314 480.472 306.762 479.433 300.389C478.589 295.234 482.367 273.382 483.839 265.209C483.997 264.327 483.88 263.404 483.511 262.621C483.141 261.838 482.545 261.251 481.839 260.974Z" fill="url(#paint1_linear_73_30)"/>
<path d="M400.556 84.1748C400.556 84.1748 393.144 82.6188 382.156 70.4817C373.461 60.8817 361.733 62.7692 357.211 63.9802C357.057 64.0208 356.917 64.1178 356.809 64.2582C356.702 64.3987 356.632 64.5758 356.61 64.7659C356.587 64.9559 356.613 65.1498 356.684 65.3213C356.755 65.4929 356.867 65.634 357.006 65.7257C358.833 66.9434 361.667 68.7227 362.994 68.9257C362.994 68.9257 360.256 72.376 363.167 74.2229C363.515 74.4314 363.905 74.5178 364.291 74.4724C364.678 74.427 365.046 74.2516 365.356 73.9659C366.756 72.721 370.644 75.549 376.283 77.017C376.283 77.017 398.261 104.714 403.372 100.019L400.556 84.1748Z" fill="#FEC3BE"/>
<path d="M438.394 46.5186C438.394 46.5186 440.439 57.0996 438.394 64.5686L447.594 66.1246L455.772 61.1453V54.61C455.772 54.61 451.939 44.6514 452.961 33.1367L438.394 46.5186Z" fill="#FEC3BE"/>
<path d="M464.444 275.864C464.444 275.864 471.111 291.736 470.067 302.317C469.022 312.898 478.756 303.562 477.733 297.338C476.906 292.304 480.594 270.953 482.033 263.01C482.189 262.152 482.078 261.254 481.721 260.49C481.363 259.726 480.786 259.151 480.1 258.877C477.028 257.645 471.883 256.137 469.3 258.444C465.483 261.86 464.444 275.864 464.444 275.864Z" fill="black"/>
<path d="M439.161 293.292C439.161 293.292 430.472 306.985 428.172 307.296C425.872 307.607 424.339 311.964 428.172 312.898C435.826 314.52 443.698 313.585 450.95 310.192C451.676 309.847 452.285 309.216 452.681 308.399C453.077 307.582 453.236 306.626 453.133 305.686L451.667 292.358L439.161 293.292Z" fill="black"/>
<path d="M424.85 147.965L416.517 149.318C417.66 161.171 417.627 173.149 416.417 184.992V227.614C416.417 227.614 416.256 231.369 422.656 236.828C429.367 242.51 435.834 248.607 442.033 255.095L465.222 279.558C465.222 279.558 474.422 265.865 473.144 257.774C473.144 257.774 457.811 251.861 455.767 242.214C454.594 236.693 448.65 232.066 443.783 229.156C440.724 227.347 438.265 224.318 436.815 220.572C435.365 216.825 435.01 212.588 435.811 208.563C436.095 207.164 436.534 205.819 437.117 204.564C441.206 195.851 447.083 176.245 447.083 176.245L435.839 150.144L424.85 147.965Z" fill="#4D4981"/>
<path opacity="0.05" d="M424.85 147.965L416.517 149.318C417.66 161.171 417.627 173.149 416.417 184.992V227.614C416.417 227.614 416.256 231.369 422.656 236.828C429.367 242.51 435.834 248.607 442.033 255.095L465.222 279.558C465.222 279.558 474.422 265.865 473.144 257.774C473.144 257.774 457.811 251.861 455.767 242.214C454.594 236.693 448.65 232.066 443.783 229.156C440.724 227.347 438.265 224.318 436.815 220.572C435.365 216.825 435.01 212.588 435.811 208.563C436.095 207.164 436.534 205.819 437.117 204.564C441.206 195.851 447.083 176.245 447.083 176.245L435.839 150.144L424.85 147.965Z" fill="black"/>
<path d="M437.117 294.246C437.117 294.246 452.194 297.358 452.706 299.225C453.217 301.092 452.706 296.735 452.706 296.735C452.706 296.735 461.394 264.681 459.372 236.368C457.35 208.055 461.928 189.376 461.928 189.376C461.928 189.376 467.294 168.214 464.228 156.077C461.161 143.94 428.961 149.23 428.961 149.23C428.961 149.23 440.206 181.284 439.95 196.534C439.95 196.534 441.228 242.592 443.528 247.883C443.506 247.856 439.928 292.981 437.117 294.246Z" fill="#4D4981"/>
<path d="M438.889 54.6099C438.889 54.6099 440.422 66.111 455.756 61.1452L445.556 155.745C445.556 155.745 415.911 156.99 416.167 152.633L422.278 95.3779L438.889 54.6099Z" fill="white"/>
<path opacity="0.1" d="M439.289 53.9875C437.292 56.3813 434.691 57.8853 431.906 58.2565C429.361 58.4939 426.888 59.3888 424.65 60.8815C422.022 62.6743 419.094 65.2789 418.206 68.4519C416.417 74.676 405.172 84.9458 400.061 82.7674L401.85 101.44C401.85 101.44 416.417 100.506 418.972 93.6596L414.633 160.292H418.467C418.467 160.292 420.511 142.242 422.044 138.507C423.578 134.773 426.644 114.233 426.9 109.254C427.156 104.274 430.989 75.6435 434.311 70.6912L439.311 55.9089L439.289 53.9875Z" fill="black"/>
<path opacity="0.1" d="M439.289 54.9211C437.005 57.0966 434.274 58.4658 431.394 58.8789C428.851 59.1215 426.38 60.0209 424.144 61.5174C421.517 63.3102 418.589 65.9149 417.7 69.0878C415.911 75.3119 404.667 85.5818 399.556 83.4033L401.344 102.076C401.344 102.076 415.911 101.142 418.467 94.2955L414.122 160.887H417.956C417.956 160.887 420 142.837 421.533 139.103C423.067 135.368 426.133 114.828 426.389 109.849C426.644 104.87 430.478 76.2388 433.8 71.2865L439.289 56.7816V54.9211Z" fill="black"/>
<path d="M439.289 54.2988C437.005 56.4743 434.274 57.8434 431.394 58.2566C428.85 58.494 426.377 59.3889 424.139 60.8815C421.511 62.6743 418.583 65.279 417.694 68.452C415.906 74.6761 404.661 84.9459 399.55 82.7675L401.339 101.44C401.339 101.44 415.906 100.506 418.461 93.6597L414.122 160.292H417.956C417.956 160.292 420 142.242 421.533 138.507C423.067 134.773 426.133 114.233 426.389 109.254C426.644 104.275 430.478 75.6435 433.8 70.6913L439.294 56.2202L439.289 54.2988Z" fill="#6A92F8"/>
<path opacity="0.1" d="M452.322 42.3173C451.989 39.3676 452.656 37.5274 452.961 34.0703L438.394 47.4522C438.394 47.4522 438.744 49.2585 439.011 51.9038C439.746 52.0484 440.489 52.1208 441.233 52.1203C446.289 52.1203 449.928 47.3101 452.322 42.3173Z" fill="black"/>
<path d="M441.206 51.1936C448.827 51.1936 455.006 43.6696 455.006 34.3884C455.006 25.1072 448.827 17.5833 441.206 17.5833C433.584 17.5833 427.406 25.1072 427.406 34.3884C427.406 43.6696 433.584 51.1936 441.206 51.1936Z" fill="#FEC3BE"/>
<path opacity="0.1" d="M426.144 17.9146C426.056 15.0806 426.434 12.2536 427.256 9.59998C427.027 10.0175 426.931 10.5215 426.984 11.0189C427.037 11.5164 427.236 11.9736 427.544 12.3061C427.989 9.414 429.208 6.7828 431.011 4.82364C430.028 5.01983 429.522 6.50145 429.767 7.67862C430.099 8.82842 430.69 9.84123 431.472 10.6013C431.389 8.82197 432.356 7.15769 433.578 6.18348C434.851 5.29272 436.242 4.67916 437.689 4.37036C437.193 4.58476 436.769 4.99306 436.484 5.53155C436.198 6.07003 436.067 6.70842 436.111 7.34711C436.115 7.56411 436.189 7.77047 436.317 7.92217C436.456 8.03033 436.619 8.08242 436.783 8.07101C438.223 8.13857 439.664 8.10016 441.1 7.956C442.865 7.71408 444.64 7.59887 446.417 7.61097C451.972 7.89512 457.556 12.5159 458.8 19.1121C459.058 20.7126 459.194 22.3387 459.206 23.9696L459.478 32.2978C459.636 34.7274 459.554 37.1714 459.233 39.5773C458.848 41.7983 458.066 43.8885 456.941 45.6988C455.817 47.5091 454.378 48.9949 452.728 50.0501C450.722 46.5118 450.544 41.9655 449.85 37.7506C449.74 36.778 449.443 35.8507 448.983 35.0445C448.746 34.6459 448.412 34.3471 448.029 34.1895C447.646 34.0319 447.232 34.0234 446.844 34.165C446.094 34.5303 445.772 35.924 446.394 36.5464C445.839 37.3447 444.8 36.7494 444.172 36.039C442.419 34.0137 441.212 31.388 440.711 28.5092C440.461 27.0614 440.211 25.2753 439.044 24.7814C438.643 24.6471 438.224 24.6126 437.811 24.68C435.378 24.8829 431.572 26.1075 429.217 25.1671C427.056 24.3079 426.144 20.411 426.144 17.9146Z" fill="black"/>
<path d="M426.4 17.6033C426.312 14.7693 426.689 11.9423 427.511 9.2887C427.283 9.70621 427.186 10.2102 427.239 10.7077C427.293 11.2051 427.492 11.6623 427.8 11.9948C428.245 9.10272 429.464 6.47152 431.267 4.51236C430.283 4.70856 429.778 6.19017 430.022 7.36734C430.354 8.51714 430.945 9.52995 431.728 10.29C431.644 8.51068 432.611 6.84641 433.833 5.87219C435.107 4.98143 436.498 4.36788 437.944 4.05908C437.448 4.27348 437.025 4.68178 436.739 5.22027C436.454 5.75876 436.323 6.39714 436.367 7.03584C436.371 7.25283 436.445 7.45919 436.572 7.6109C436.711 7.71905 436.874 7.77113 437.039 7.75972C438.478 7.82728 439.92 7.78888 441.356 7.64471C443.121 7.40279 444.896 7.28758 446.672 7.29968C452.228 7.58383 457.811 12.2046 459.056 18.8008C459.313 20.4013 459.449 22.0274 459.461 23.6583L459.733 31.9865C459.891 34.4162 459.809 36.8602 459.489 39.266C459.104 41.487 458.322 43.5772 457.197 45.3875C456.072 47.1978 454.634 48.6836 452.983 49.7388C450.978 46.2005 450.8 41.6542 450.106 37.4394C449.996 36.4667 449.699 35.5394 449.239 34.7332C449.001 34.3346 448.668 34.0358 448.285 33.8782C447.901 33.7206 447.487 33.7121 447.1 33.8537C446.35 34.2191 446.028 35.6127 446.65 36.2351C446.094 37.0334 445.056 36.4381 444.428 35.7277C442.675 33.7024 441.468 31.0767 440.967 28.1979C440.717 26.7501 440.467 24.964 439.3 24.4702C438.899 24.3359 438.479 24.3013 438.067 24.3687C435.633 24.5716 431.828 25.7962 429.472 24.8558C427.311 23.9898 426.4 20.0997 426.4 17.6033Z" fill="#2F2E41"/>
<path opacity="0.1" d="M398.889 82.7742C398.889 82.7742 396.844 94.2753 400.678 101.447L402.85 101.23L401.667 82.9636L398.889 82.7742Z" fill="black"/>
<path d="M399.444 82.7742C399.444 82.7742 397.4 94.2753 401.233 101.447L403.406 101.23L402.222 82.9636L399.444 82.7742Z" fill="#6A92F8"/>
<path opacity="0.1" d="M454.367 51.3694L470.85 68.6413C470.85 68.6413 480.561 80.7784 476.472 100.384C476.472 100.384 474.683 129.015 472.639 130.26C472.639 130.26 465.483 147.688 464.972 164.182C464.972 164.182 455.389 140.686 451.044 155.001C446.7 169.317 436.6 171.339 436.6 171.339L442.222 86.6643C442.222 86.6643 456.411 56.6328 454.367 51.3694Z" fill="black"/>
<path d="M454.878 51.3694L471.361 68.6413C471.361 68.6413 481.072 80.7784 476.983 100.384C476.983 100.384 475.194 129.015 473.15 130.26C473.15 130.26 465.994 147.688 465.483 164.182C465.483 164.182 455.389 139.441 451.039 153.756C446.689 168.072 437.111 171.346 437.111 171.346L442.733 86.7049C442.733 86.7049 456.922 56.6328 454.878 51.3694Z" fill="#6A92F8"/>
<path d="M462.417 124.32C462.417 124.32 466.506 120.897 473.15 130.233L456.794 166.333L451.3 156.232C451.3 156.232 462.928 128.366 462.417 124.32Z" fill="#FEC3BE"/>
<path opacity="0.1" d="M458.456 126.343C458.456 126.343 467.5 138.71 471.028 136.728L474.294 127.466L462.033 121.052L458.456 126.343Z" fill="black"/>
<path d="M458.456 125.721C458.456 125.721 467.5 138.088 471.028 136.106L474.294 126.844L462.033 120.43L458.456 125.721Z" fill="#6A92F8"/>
<path opacity="0.1" d="M451.856 153.871C451.856 153.871 456.161 164.615 458.456 165.237L455.122 169.905L450.267 158.702L451.856 153.871Z" fill="black"/>
<path d="M451.6 154.203C451.6 154.203 455.906 164.946 458.2 165.569L454.867 170.237L450 159.013L451.6 154.203Z" fill="#4D4981"/>
<path opacity="0.1" d="M459.733 87.7532C459.733 87.7532 460.244 110.16 458.2 118.563L459.733 87.7532Z" fill="black"/>
<path opacity="0.1" d="M418.333 92.1101C418.333 92.1101 421.4 90.8652 421.4 87.7532L418.333 92.1101Z" fill="black"/>
<path d="M45.9389 95.8586C45.9389 95.8586 31.3722 132.554 40.9389 175.981C50.5056 219.408 47.4667 271.372 37.9278 284.226" stroke="#535461" stroke-width="2" stroke-miterlimit="10"/>
<path d="M45.9389 100.757C48.1573 100.757 49.9556 98.5666 49.9556 95.8652C49.9556 93.1638 48.1573 90.9739 45.9389 90.9739C43.7206 90.9739 41.9222 93.1638 41.9222 95.8652C41.9222 98.5666 43.7206 100.757 45.9389 100.757Z" fill="#2836B1"/>
<path d="M39.8833 119.463C39.8833 119.463 54.9833 122.778 59 116.08" stroke="#535461" stroke-width="2" stroke-miterlimit="10"/>
<path d="M38.45 130.118C38.45 130.118 29.3667 117.88 29.8667 110.539" stroke="#535461" stroke-width="2" stroke-miterlimit="10"/>
<path d="M37.6778 152.538C37.6778 152.538 45.9389 155.19 53.4778 135.625" stroke="#535461" stroke-width="2" stroke-miterlimit="10"/>
<path d="M39.8833 168.843C39.8833 168.843 19.3278 152.735 21.8333 142.343" stroke="#535461" stroke-width="2" stroke-miterlimit="10"/>
<path d="M43.0945 187.279C43.0945 187.279 57.4945 171.718 55.9889 156.408" stroke="#535461" stroke-width="2" stroke-miterlimit="10"/>
<path d="M44.6611 198.117C44.6611 198.117 26.3278 191.879 26.8833 182.096" stroke="#535461" stroke-width="2" stroke-miterlimit="10"/>
<path d="M45.9389 211.032C45.9389 211.032 57.4889 198.002 58.9944 190.059" stroke="#535461" stroke-width="2" stroke-miterlimit="10"/>
<path d="M46.7445 233.188C46.7445 233.188 34.8944 216.343 34.3889 207.785" stroke="#535461" stroke-width="2" stroke-miterlimit="10"/>
<path d="M46.7444 247.131C46.7444 247.131 60.0056 229.19 61.0056 220.632" stroke="#535461" stroke-width="2" stroke-miterlimit="10"/>
<path d="M29.8667 116.655C32.085 116.655 33.8833 114.465 33.8833 111.764C33.8833 109.062 32.085 106.873 29.8667 106.873C27.6483 106.873 25.85 109.062 25.85 111.764C25.85 114.465 27.6483 116.655 29.8667 116.655Z" fill="#2836B1"/>
<path d="M25.35 186.988C27.5684 186.988 29.3667 184.798 29.3667 182.096C29.3667 179.395 27.5684 177.205 25.35 177.205C23.1317 177.205 21.3333 179.395 21.3333 182.096C21.3333 184.798 23.1317 186.988 25.35 186.988Z" fill="#2836B1"/>
<path d="M21.8333 147.234C24.0517 147.234 25.85 145.044 25.85 142.343C25.85 139.642 24.0517 137.452 21.8333 137.452C19.615 137.452 17.8167 139.642 17.8167 142.343C17.8167 145.044 19.615 147.234 21.8333 147.234Z" fill="#2836B1"/>
<path d="M59 120.938C61.2183 120.938 63.0167 118.748 63.0167 116.046C63.0167 113.345 61.2183 111.155 59 111.155C56.7816 111.155 54.9833 113.345 54.9833 116.046C54.9833 118.748 56.7816 120.938 59 120.938Z" fill="#2836B1"/>
<path d="M59 196.162C61.2183 196.162 63.0167 193.972 63.0167 191.27C63.0167 188.569 61.2183 186.379 59 186.379C56.7816 186.379 54.9833 188.569 54.9833 191.27C54.9833 193.972 56.7816 196.162 59 196.162Z" fill="#2836B1"/>
<path d="M52.4722 140.51C54.6906 140.51 56.4889 138.32 56.4889 135.618C56.4889 132.917 54.6906 130.727 52.4722 130.727C50.2539 130.727 48.4556 132.917 48.4556 135.618C48.4556 138.32 50.2539 140.51 52.4722 140.51Z" fill="#2836B1"/>
<path d="M60.5056 228.581C62.7239 228.581 64.5222 226.391 64.5222 223.69C64.5222 220.988 62.7239 218.798 60.5056 218.798C58.2872 218.798 56.4889 220.988 56.4889 223.69C56.4889 226.391 58.2872 228.581 60.5056 228.581Z" fill="#2836B1"/>
<path d="M33.3833 215.734C35.6017 215.734 37.4 213.544 37.4 210.842C37.4 208.141 35.6017 205.951 33.3833 205.951C31.165 205.951 29.3667 208.141 29.3667 210.842C29.3667 213.544 31.165 215.734 33.3833 215.734Z" fill="#2836B1"/>
<path d="M56.4889 161.3C58.7073 161.3 60.5056 159.11 60.5056 156.408C60.5056 153.707 58.7073 151.517 56.4889 151.517C54.2706 151.517 52.4722 153.707 52.4722 156.408C52.4722 159.11 54.2706 161.3 56.4889 161.3Z" fill="#2836B1"/>
</g>
<defs>
<linearGradient id="paint0_linear_73_30" x1="247.839" y1="285.025" x2="247.839" y2="37.5816" gradientUnits="userSpaceOnUse">
<stop stop-color="#808080" stop-opacity="0.25"/>
<stop offset="0.54" stop-color="#808080" stop-opacity="0.12"/>
<stop offset="1" stop-color="#808080" stop-opacity="0.1"/>
</linearGradient>
<linearGradient id="paint1_linear_73_30" x1="113321" y1="204131" x2="113321" y2="55512.3" gradientUnits="userSpaceOnUse">
<stop stop-color="#808080" stop-opacity="0.25"/>
<stop offset="0.54" stop-color="#808080" stop-opacity="0.12"/>
<stop offset="1" stop-color="#808080" stop-opacity="0.1"/>
</linearGradient>
<clipPath id="clip0_73_30">
<rect width="530" height="372" fill="white"/>
</clipPath>
</defs>
</svg>
