<svg width="519" height="370" viewBox="0 0 519 370" fill="none" xmlns="http://www.w3.org/2000/svg">
<path fill-rule="evenodd" clip-rule="evenodd" d="M231.434 244.296C317.792 242.255 417.531 237.69 476.425 252.483C537.857 267.913 520.053 291.543 501.36 312.095C482.129 333.238 457.234 356.767 373.124 366.054C289.282 375.312 190.081 366.907 112.663 355.014C47.6624 345.028 20.0515 327.524 6.40478 309.718C-6.21426 293.253 -3.01183 275.823 41.9511 262.751C86.9013 249.683 159.734 245.991 231.434 244.296Z" fill="#2836B1"/>
<path d="M453.142 277.412L449.964 283.831L444.137 283.337L440.429 271.98L446.256 269.018L453.142 277.412Z" fill="#FFB8B8"/>
<path d="M473.145 292.196L473.271 296.669L464.266 297.163V291.731L473.145 292.196Z" fill="#FFB8B8"/>
<path d="M470.092 210.753L467.973 250.255L473.271 293.213L457.379 295.188L447.315 240.873L444.137 203.84L470.092 210.753Z" fill="#2F2E41"/>
<path d="M494.988 196.434C494.988 196.434 501.345 235.442 488.102 248.28C474.86 261.118 456.85 283.831 456.85 283.831L444.137 269.018L476.449 236.923L470.092 215.197L444.137 203.84L448.375 176.683L486.513 176.189L494.988 196.434Z" fill="#2F2E41"/>
<path d="M463.736 106.074C470.172 106.074 475.389 101.211 475.389 95.2115C475.389 89.2121 470.172 84.3486 463.736 84.3486C457.3 84.3486 452.082 89.2121 452.082 95.2115C452.082 101.211 457.3 106.074 463.736 106.074Z" fill="#FFB8B8"/>
<path d="M473.8 97.6804C473.8 97.6804 474.33 112.987 476.978 114.962C479.627 116.937 467.444 125.331 467.444 125.331L459.498 113.481V102.618L473.8 97.6804Z" fill="#FFB8B8"/>
<path d="M468.503 118.418L474.934 109.366L478.567 113.975L483.865 127.8L479.627 181.621L454.731 182.115L451.553 120.394L459.498 111.506L468.503 118.418Z" fill="#D0CDE1"/>
<path d="M441.488 121.875L437.251 121.381C437.251 121.381 436.191 121.875 435.662 125.331C435.132 128.788 428.776 159.401 428.776 159.401L437.251 196.928L446.785 185.077L440.959 164.339L446.785 143.601L441.488 121.875Z" fill="#2F2E41"/>
<path d="M495.518 121.381H498.696L506.641 161.376L499.226 192.484L491.81 181.127L493.929 168.783L492.869 157.92L489.161 151.501L495.518 121.381Z" fill="#2F2E41"/>
<path d="M448.375 281.856C448.375 281.856 451.553 280.868 451.553 282.843C451.553 284.819 449.434 290.744 449.434 290.744C449.434 290.744 452.612 309.013 447.845 308.026C443.078 307.038 439.37 298.644 438.84 296.175C438.31 293.706 435.662 280.868 435.662 280.868C435.662 280.868 431.424 271.487 434.073 270.993C436.721 270.499 444.137 268.524 444.137 268.524C444.137 268.524 439.899 280.868 448.375 281.856Z" fill="#2F2E41"/>
<path d="M463.736 297.163C463.736 297.163 472.211 292.225 473.8 296.175C474.854 299.056 475.565 302.037 475.919 305.063C475.919 305.063 478.038 311.482 469.563 310.495C461.087 309.507 462.147 309.507 461.617 306.544C461.087 303.582 463.736 297.163 463.736 297.163Z" fill="#2F2E41"/>
<path d="M470.622 95.2115L468.503 94.7178C468.503 94.7178 466.914 86.3237 463.206 87.3112C459.498 88.2988 449.964 89.2863 449.964 85.3362C449.964 81.386 458.969 77.9296 464.266 78.4234C469.563 78.9172 478.568 80.3985 478.038 87.805C477.508 95.2115 474.09 102.416 474.09 102.416L473.814 98.0252L470.622 95.2115Z" fill="#2F2E41"/>
<path d="M459.498 124.344L468.503 118.418L459.498 111.506L456.372 115.003L459.498 124.344Z" fill="#D0CDE1"/>
<path d="M476.449 123.85L468.503 118.419L474.859 109.531L478.567 113.975L476.449 123.85Z" fill="#D0CDE1"/>
<path d="M437.781 121.381L454.731 114.962L458.704 112.246L470.622 161.376L478.567 139.157L476.184 110.765L498.166 121.381L490.751 154.957L489.691 167.795L492.869 178.165C492.869 178.165 503.993 185.571 500.285 193.471C496.577 201.372 492.34 201.865 492.34 201.865C492.34 201.865 474.33 186.065 473.271 182.115C472.211 178.165 470.622 171.252 470.622 171.252C470.622 171.252 461.617 202.853 451.023 202.359C440.429 201.865 440.429 191.496 440.429 191.496L443.078 180.633L447.315 169.277L445.196 150.514L437.781 121.381Z" fill="#2F2E41"/>
<path d="M410.428 0.195068H41.1577V220.65H410.428V0.195068Z" fill="#E6E6E6"/>
<path d="M399.869 27.8457H51.7169V111.885H399.869V27.8457Z" fill="white"/>
<path d="M211.943 39.9846H138.316V43.9244H211.943V39.9846Z" fill="#E6E6E6"/>
<path d="M252.011 54.3557H138.316V58.2954H252.011V54.3557Z" fill="#2836B1"/>
<path d="M230.975 67.8953H138.316V71.835H230.975V67.8953Z" fill="#E6E6E6"/>
<path d="M192.409 81.3838H138.316V85.3235H192.409V81.3838Z" fill="#E6E6E6"/>
<path d="M219.956 94.8723H138.316V98.812H219.956V94.8723Z" fill="#E6E6E6"/>
<path d="M113.774 38.584H104.759V46.9879H113.774V38.584Z" fill="#E6E6E6"/>
<path d="M113.774 52.1235H104.759V60.5275H113.774V52.1235Z" fill="#2836B1"/>
<path d="M113.774 65.6633H104.759V74.0673H113.774V65.6633Z" fill="#E6E6E6"/>
<path d="M113.774 79.2029H104.759V87.6068H113.774V79.2029Z" fill="#E6E6E6"/>
<path d="M113.774 92.7424H104.759V101.146H113.774V92.7424Z" fill="#E6E6E6"/>
<path d="M351.182 57.7263H321.13V85.7394H351.182V57.7263Z" fill="#E6E6E6"/>
<path d="M399.869 123.557H51.7169V207.596H399.869V123.557Z" fill="white"/>
<path d="M129.301 131.026H120.285V139.43H129.301V131.026Z" fill="#E6E6E6"/>
<path d="M113.774 131.026H104.759V139.43H113.774V131.026Z" fill="#2836B1"/>
<path d="M257.617 149.404C254.87 145.067 251.057 141.401 246.493 138.705C241.929 136.01 236.743 134.363 231.363 133.9C225.983 133.436 220.562 134.17 215.546 136.04C210.529 137.911 206.06 140.864 202.507 144.658L200.31 142.868C204.166 138.749 209.016 135.543 214.462 133.512C219.907 131.482 225.791 130.685 231.631 131.188C237.471 131.69 243.1 133.478 248.054 136.404C253.008 139.33 257.146 143.311 260.128 148.018L257.617 149.404Z" fill="#E6E6E6"/>
<path d="M258.992 184.834L256.571 183.316C260.157 178.331 262.158 172.501 262.343 166.501C262.529 160.5 260.89 154.573 257.617 149.404L260.128 148.018C263.682 153.63 265.461 160.065 265.26 166.579C265.059 173.093 262.886 179.422 258.992 184.834V184.834Z" fill="#2836B1"/>
<path d="M200.614 188.623C194.583 182.344 191.223 174.227 191.167 165.799C191.111 157.372 194.362 149.216 200.31 142.868L202.507 144.658C197.028 150.506 194.033 158.019 194.084 165.783C194.136 173.546 197.231 181.024 202.787 186.808L200.614 188.623Z" fill="#2836B1"/>
<path d="M228.221 200.127C223.011 200.123 217.86 199.097 213.103 197.115C208.347 195.133 204.091 192.24 200.614 188.623L202.787 186.809C206.256 190.421 210.565 193.247 215.384 195.071C220.204 196.895 225.407 197.667 230.596 197.33C235.784 196.994 240.822 195.556 245.324 193.127C249.826 190.698 253.673 187.343 256.571 183.316L258.992 184.834C255.605 189.543 251.025 193.401 245.659 196.068C240.292 198.736 234.303 200.13 228.221 200.127Z" fill="#2836B1"/>
<path d="M351.182 149.236H321.13V177.249H351.182V149.236Z" fill="#E6E6E6"/>
<path d="M133.558 167.444H103.507V195.457H133.558V167.444Z" fill="#E6E6E6"/>
<path d="M410.27 0H41V14.6238H410.27V0Z" fill="#2836B1"/>
<path d="M52.658 10.1869C54.2639 10.1869 55.5657 8.97344 55.5657 7.47652C55.5657 5.9796 54.2639 4.76611 52.658 4.76611C51.0522 4.76611 49.7504 5.9796 49.7504 7.47652C49.7504 8.97344 51.0522 10.1869 52.658 10.1869Z" fill="white"/>
<path d="M63.6947 10.1869C65.3005 10.1869 66.6023 8.97344 66.6023 7.47652C66.6023 5.9796 65.3005 4.76611 63.6947 4.76611C62.0888 4.76611 60.787 5.9796 60.787 7.47652C60.787 8.97344 62.0888 10.1869 63.6947 10.1869Z" fill="white"/>
<path d="M74.7314 10.1869C76.3372 10.1869 77.639 8.97344 77.639 7.47652C77.639 5.9796 76.3372 4.76611 74.7314 4.76611C73.1255 4.76611 71.8237 5.9796 71.8237 7.47652C71.8237 8.97344 73.1255 10.1869 74.7314 10.1869Z" fill="white"/>
</svg>
