<svg width="24" height="24" viewBox="0 0 24 24" fill="none" xmlns="http://www.w3.org/2000/svg">
<path d="M12 24C9.82812 24 7.82031 23.4648 5.97656 22.3945C4.13281 21.3242 2.67578 19.8672 1.60547 18.0234C0.535156 16.1797 0 14.1719 0 12C0 9.82812 0.535156 7.82031 1.60547 5.97656C2.67578 4.13281 4.13281 2.67578 5.97656 1.60547C7.82031 0.535156 9.82812 0 12 0C14.1719 0 16.1797 0.535156 18.0234 1.60547C19.8672 2.67578 21.3242 4.13281 22.3945 5.97656C23.4648 7.82031 24 9.82812 24 12C24 14.1719 23.4648 16.1797 22.3945 18.0234C21.3242 19.8672 19.8672 21.3242 18.0234 22.3945C16.1797 23.4648 14.1719 24 12 24ZM12 3C10.375 3 8.87109 3.40234 7.48828 4.20703C6.10547 5.01172 5.01172 6.10547 4.20703 7.48828C3.40234 8.87109 3 10.375 3 12C3 13.625 3.40234 15.1289 4.20703 16.5117C5.01172 17.8945 6.10547 18.9883 7.48828 19.793C8.87109 20.5977 10.375 21 12 21C13.625 21 15.1289 20.5977 16.5117 19.793C17.8945 18.9883 18.9883 17.8945 19.793 16.5117C20.5977 15.1289 21 13.625 21 12C21 10.375 20.5977 8.87109 19.793 7.48828C18.9883 6.10547 17.8945 5.01172 16.5117 4.20703C15.1289 3.40234 13.625 3 12 3ZM17.2031 10.125C17.1094 10.4531 16.9297 10.7227 16.6641 10.9336C16.3984 11.1445 16.0938 11.25 15.75 11.25C15.625 11.25 15.5 11.2266 15.375 11.1797C15.25 11.1328 15.1484 11.0859 15.0703 11.0391C14.9922 10.9922 14.9023 10.9141 14.8008 10.8047C14.6992 10.6953 14.6289 10.6172 14.5898 10.5703C14.5508 10.5234 14.4961 10.4414 14.4258 10.3242C14.3555 10.207 14.3125 10.1406 14.2969 10.125C13.6875 9.375 12.9219 9 12 9C11.1719 9 10.4648 9.29297 9.87891 9.87891C9.29297 10.4648 9 11.1719 9 12C9 12.8281 9.29297 13.5352 9.87891 14.1211C10.4648 14.707 11.1719 15 12 15C12.9219 15 13.6875 14.625 14.2969 13.875C14.3281 13.8438 14.4023 13.7383 14.5195 13.5586C14.6367 13.3789 14.7344 13.2461 14.8125 13.1602C14.8906 13.0742 15.0156 12.9844 15.1875 12.8906C15.3594 12.7969 15.5469 12.75 15.75 12.75C16.0938 12.75 16.3984 12.8555 16.6641 13.0664C16.9297 13.2773 17.1094 13.5469 17.2031 13.875C17.2188 13.9375 17.2344 14.0234 17.25 14.1328C17.2656 14.2422 17.2383 14.4258 17.168 14.6836C17.0977 14.9414 16.9531 15.1719 16.7344 15.375C16.1562 16.1562 15.4531 16.7891 14.625 17.2734C13.7969 17.7578 12.9219 18 12 18C10.3438 18 8.92969 17.4141 7.75781 16.2422C6.58594 15.0703 6 13.6562 6 12C6 10.3438 6.58594 8.92969 7.75781 7.75781C8.92969 6.58594 10.3438 6 12 6C12.9531 6 13.8477 6.24609 14.6836 6.73828C15.5195 7.23047 16.2266 7.88281 16.8047 8.69531C16.9922 8.86719 17.1172 9.07422 17.1797 9.31641C17.2422 9.55859 17.2578 9.75781 17.2266 9.91406L17.2031 10.125Z" fill="white"/>
</svg>
