<svg width="50" height="50" viewBox="0 0 50 50" fill="none" xmlns="http://www.w3.org/2000/svg">
<path d="M49.5 25.1509C49.5 37.2542 40.8331 47.3178 29.4054 49.4028V32.9178H34.726H35.1556L35.2203 32.493L36.3279 25.2212L36.4155 24.6459H35.8336H29.4054V20.4296C29.4054 19.5069 29.6312 18.6565 30.1574 18.0434C30.6714 17.4444 31.5357 16.9981 32.9758 16.9981H36.1361H36.6361V16.4981V10.3129V9.89123L36.2205 9.82008L36.1361 10.3129C36.2205 9.82008 36.2204 9.82007 36.2204 9.82006L36.2202 9.82003L36.2197 9.81994L36.2178 9.81962L36.2109 9.81846L36.1851 9.81414C36.1751 9.81248 36.163 9.81049 36.1489 9.80818C36.1313 9.8053 36.1105 9.80194 36.0868 9.79813C36.0012 9.78442 35.8766 9.76495 35.7187 9.74164C35.4031 9.69502 34.9542 9.63299 34.4191 9.57099C33.351 9.44722 31.9299 9.32242 30.5356 9.32242C27.5797 9.32242 25.0804 10.2251 23.3198 11.998C21.559 13.7711 20.5946 16.3565 20.5946 19.6096V24.6509H14.744H14.244V25.1509V32.4228V32.9228H14.744H20.5946V49.4074C9.16661 47.3128 0.5 37.2514 0.5 25.1509C0.5 11.5345 11.4726 0.5 25 0.5C38.5274 0.5 49.5 11.5345 49.5 25.1509Z" fill="white" stroke="#C4C4C4"/>
</svg>
