<svg width="604" height="594" viewBox="0 0 604 594" fill="none" xmlns="http://www.w3.org/2000/svg">
<path d="M50 185.5C50 171.693 61.1929 160.5 75 160.5H263.761C277.568 160.5 288.761 171.693 288.761 185.5H50Z" fill="white"/>
<ellipse cx="119.233" cy="161.25" rx="32.5583" ry="21.25" fill="white"/>
<ellipse cx="256.577" cy="168" rx="22.454" ry="15" fill="white"/>
<ellipse cx="172.748" cy="160.5" rx="22.454" ry="15" fill="white"/>
<ellipse cx="284.27" cy="181.75" rx="9.73006" ry="6.25" fill="white"/>
<mask id="path-6-inside-1_464_3" fill="white">
<path fill-rule="evenodd" clip-rule="evenodd" d="M69.2331 140C51.6363 140 37.3 149.111 36.6948 160.5H25C11.1929 160.5 0 171.693 0 185.5H226.485C228.26 187.018 231.087 188 234.27 188C239.644 188 244 185.202 244 181.75C244 178.853 240.933 176.417 236.77 175.708C235.028 171.618 232.226 168.087 228.71 165.46C226.904 158.386 217.682 153 206.577 153C198.266 153 191.009 156.016 187.127 160.5H145.202C145.202 152.216 135.149 145.5 122.748 145.5C112.329 145.5 103.567 150.241 101.033 156.67C97.824 147.135 84.8053 140 69.2331 140Z"/>
</mask>
<path d="M36.6948 160.5V161.5H37.643L37.6934 160.553L36.6948 160.5ZM0 185.5H-1V186.5H0V185.5ZM226.485 185.5L227.135 184.74L226.854 184.5H226.485V185.5ZM236.77 175.708L235.85 176.1L236.064 176.602L236.603 176.694L236.77 175.708ZM228.71 165.46L227.741 165.708L227.829 166.05L228.112 166.261L228.71 165.46ZM187.127 160.5V161.5H187.583L187.883 161.155L187.127 160.5ZM145.202 160.5H144.202V161.5H145.202V160.5ZM101.033 156.67L100.085 156.989L100.959 159.584L101.964 157.036L101.033 156.67ZM37.6934 160.553C37.9732 155.288 41.437 150.419 47.1262 146.825C52.8049 143.237 60.5975 141 69.2331 141V139C60.272 139 52.0981 141.318 46.0581 145.134C40.0286 148.943 36.0217 154.323 35.6962 160.447L37.6934 160.553ZM25 161.5H36.6948V159.5H25V161.5ZM1 185.5C1 172.245 11.7452 161.5 25 161.5V159.5C10.6406 159.5 -1 171.141 -1 185.5H1ZM226.485 184.5H0V186.5H226.485V184.5ZM234.27 187C231.27 187 228.692 186.071 227.135 184.74L225.835 186.26C227.829 187.965 230.903 189 234.27 189V187ZM243 181.75C243 183.02 242.197 184.308 240.61 185.328C239.033 186.341 236.794 187 234.27 187V189C237.119 189 239.746 188.26 241.691 187.011C243.625 185.768 245 183.932 245 181.75H243ZM236.603 176.694C238.547 177.025 240.183 177.752 241.31 178.681C242.437 179.608 243 180.681 243 181.75H245C245 179.923 244.029 178.329 242.582 177.137C241.135 175.946 239.156 175.1 236.938 174.722L236.603 176.694ZM228.112 166.261C231.488 168.784 234.178 172.175 235.85 176.1L237.69 175.316C235.878 171.062 232.964 167.391 229.309 164.659L228.112 166.261ZM206.577 154C211.974 154 216.882 155.31 220.636 157.446C224.4 159.588 226.925 162.511 227.741 165.708L229.679 165.213C228.689 161.335 225.701 158.027 221.625 155.708C217.54 153.383 212.284 152 206.577 152V154ZM187.883 161.155C191.527 156.946 198.473 154 206.577 154V152C198.058 152 190.491 155.087 186.371 159.845L187.883 161.155ZM145.202 161.5H187.127V159.5H145.202V161.5ZM122.748 146.5C128.779 146.5 134.193 148.135 138.07 150.725C141.955 153.32 144.202 156.795 144.202 160.5H146.202C146.202 155.92 143.424 151.896 139.181 149.062C134.932 146.223 129.119 144.5 122.748 144.5V146.5ZM101.964 157.036C103.118 154.107 105.733 151.473 109.397 149.561C113.051 147.653 117.685 146.5 122.748 146.5V144.5C117.392 144.5 112.436 145.718 108.471 147.788C104.515 149.853 101.482 152.803 100.103 156.303L101.964 157.036ZM69.2331 141C76.8726 141 83.8565 142.751 89.3002 145.643C94.7551 148.54 98.5869 152.537 100.085 156.989L101.981 156.351C100.27 151.268 95.9881 146.93 90.2383 143.876C84.4773 140.816 77.1658 139 69.2331 139V141Z" fill="white" fill-opacity="0.2" mask="url(#path-6-inside-1_464_3)"/>
<g filter="url(#filter0_dd_464_3)">
<path d="M229 70.1469C229 50.2362 245.141 34.0955 265.051 34.0955H468.994C488.904 34.0955 505.045 50.2362 505.045 70.1469H229Z" fill="white"/>
<ellipse cx="309.044" cy="24.9404" rx="37.6425" ry="23.9404" fill="white"/>
<ellipse cx="470.5" cy="42" rx="21.5" ry="15" fill="white"/>
<ellipse cx="402.643" cy="44.9404" rx="37.6425" ry="23.9404" fill="white"/>
</g>
<mask id="path-12-inside-2_464_3" fill="white">
<path fill-rule="evenodd" clip-rule="evenodd" d="M326.425 37.0955C327.125 24.2648 343.7 14 364.044 14C384.389 14 400.964 24.2648 401.664 37.0955H424.075C430.295 29.3237 442.991 24 457.643 24C472.294 24 484.99 29.3237 491.21 37.0955H507.224C511.017 32.836 517.784 30 525.5 30C537.374 30 547 36.7157 547 45C547 45.1282 546.998 45.256 546.993 45.3835C554.967 51.9963 560.045 61.9785 560.045 73.1469H284C284 53.2362 300.141 37.0955 320.051 37.0955H326.425Z"/>
</mask>
<path d="M326.425 37.0955V38.0955H327.372L327.423 37.1499L326.425 37.0955ZM401.664 37.0955L400.666 37.1499L400.717 38.0955H401.664V37.0955ZM424.075 37.0955V38.0955H424.555L424.855 37.7203L424.075 37.0955ZM491.21 37.0955L490.43 37.7203L490.73 38.0955H491.21V37.0955ZM507.224 37.0955V38.0955H507.673L507.971 37.7605L507.224 37.0955ZM546.993 45.3835L545.994 45.3476L545.976 45.8392L546.355 46.1532L546.993 45.3835ZM560.045 73.1469V74.1469H561.045V73.1469H560.045ZM284 73.1469H283V74.1469H284V73.1469ZM364.044 13C353.714 13 344.297 15.6043 337.344 19.8847C330.403 24.1568 325.8 30.1848 325.426 37.041L327.423 37.1499C327.749 31.1755 331.784 25.6557 338.392 21.5878C344.987 17.5281 354.03 15 364.044 15V13ZM402.663 37.041C402.289 30.1848 397.686 24.1568 390.745 19.8847C383.792 15.6043 374.375 13 364.044 13V15C374.059 15 383.102 17.5281 389.697 21.5878C396.305 25.6557 400.34 31.1755 400.666 37.1499L402.663 37.041ZM424.075 36.0955H401.664V38.0955H424.075V36.0955ZM424.855 37.7203C430.826 30.2596 443.185 25 457.643 25V23C442.797 23 429.763 28.3878 423.294 36.4706L424.855 37.7203ZM457.643 25C472.1 25 484.459 30.2596 490.43 37.7203L491.991 36.4706C485.522 28.3878 472.488 23 457.643 23V25ZM507.224 36.0955H491.21V38.0955H507.224V36.0955ZM525.5 29C517.566 29 510.501 31.9121 506.477 36.4304L507.971 37.7605C511.533 33.7598 518.002 31 525.5 31V29ZM548 45C548 40.4405 545.35 36.4162 541.275 33.5733C537.197 30.728 531.616 29 525.5 29V31C531.258 31 536.427 32.6299 540.131 35.2135C543.837 37.7996 546 41.2753 546 45H548ZM547.992 45.4194C547.997 45.2801 548 45.1403 548 45H546C546 45.1161 545.998 45.232 545.994 45.3476L547.992 45.4194ZM561.045 73.1469C561.045 61.6684 555.824 51.4084 547.631 44.6137L546.355 46.1532C554.109 52.5842 559.045 62.2886 559.045 73.1469H561.045ZM284 74.1469H560.045V72.1469H284V74.1469ZM320.051 36.0955C299.589 36.0955 283 52.684 283 73.1469H285C285 53.7885 300.693 38.0955 320.051 38.0955V36.0955ZM326.425 36.0955H320.051V38.0955H326.425V36.0955Z" fill="white" fill-opacity="0.2" mask="url(#path-12-inside-2_464_3)"/>
<rect x="157" width="243.649" height="490" rx="40" fill="white"/>
<rect x="174.404" y="74.4737" width="208.842" height="352.456" fill="#6A92F8" fill-opacity="0.4"/>
<rect x="252.719" y="44.386" width="52.2105" height="5.1579" rx="2.57895" fill="#C4C4C4" fill-opacity="0.5"/>
<ellipse cx="278.825" cy="24.614" rx="4.35088" ry="4.29825" fill="#C4C4C4" fill-opacity="0.5"/>
<ellipse cx="221.828" cy="45.6755" rx="6.52632" ry="6.44737" fill="#C4C4C4" fill-opacity="0.5"/>
<ellipse cx="280.579" cy="458.342" rx="19.5789" ry="19.3421" fill="white"/>
<path d="M299.158 458.342C299.158 468.461 290.851 476.684 280.579 476.684C270.307 476.684 262 468.461 262 458.342C262 448.223 270.307 440 280.579 440C290.851 440 299.158 448.223 299.158 458.342Z" stroke="#C4C4C4" stroke-opacity="0.5" stroke-width="2"/>
<rect x="396.298" y="135.193" width="8.70175" height="34.386" rx="4.35088" fill="white"/>
<path d="M213.561 145.509H342.79C348.312 145.509 352.79 149.986 352.79 155.509V178.491C352.79 184.014 348.312 188.491 342.79 188.491H223.561C218.039 188.491 213.561 184.014 213.561 178.491V145.509Z" fill="#6A92F8"/>
<path d="M214.867 154.965L224.287 145.294H205.447L214.867 154.965Z" fill="#6A92F8"/>
<line x1="230.965" y1="160.842" x2="335.386" y2="160.842" stroke="#1B2688" stroke-width="2"/>
<line x1="230.965" y1="172.018" x2="283.175" y2="172.018" stroke="#1B2688" stroke-width="2"/>
<path d="M352.789 202.246H223.561C218.038 202.246 213.561 206.723 213.561 212.246V235.228C213.561 240.751 218.038 245.228 223.561 245.228H342.789C348.312 245.228 352.789 240.751 352.789 235.228V202.246Z" fill="#2836B1"/>
<path d="M351.484 211.702L342.064 202.031H360.904L351.484 211.702Z" fill="#2836B1"/>
<line y1="-1" x2="104.421" y2="-1" transform="matrix(-1 0 0 1 335.386 218.579)" stroke="white" stroke-width="2"/>
<line y1="-1" x2="52.2105" y2="-1" transform="matrix(-1 0 0 1 335.386 239.754)" stroke="white" stroke-width="2"/>
<path d="M213.561 282.737H342.79C348.312 282.737 352.79 287.214 352.79 292.737V315.719C352.79 321.242 348.312 325.719 342.79 325.719H223.561C218.039 325.719 213.561 321.242 213.561 315.719V282.737Z" fill="#6A92F8"/>
<path d="M214.867 292.193L224.287 282.522H205.447L214.867 292.193Z" fill="#6A92F8"/>
<line x1="230.965" y1="298.07" x2="335.386" y2="298.07" stroke="#1B2688" stroke-width="2"/>
<line x1="230.965" y1="309.246" x2="283.175" y2="309.246" stroke="#1B2688" stroke-width="2"/>
<path d="M352.789 356.351H223.561C218.038 356.351 213.561 360.828 213.561 366.351V389.333C213.561 394.856 218.038 399.333 223.561 399.333H342.789C348.312 399.333 352.789 394.856 352.789 389.333V356.351Z" fill="#2836B1"/>
<path d="M351.484 365.807L342.064 356.136H360.904L351.484 365.807Z" fill="#2836B1"/>
<line y1="-1" x2="104.421" y2="-1" transform="matrix(-1 0 0 1 335.386 372.684)" stroke="white" stroke-width="2"/>
<line y1="-1" x2="52.2105" y2="-1" transform="matrix(-1 0 0 1 335.386 383.86)" stroke="white" stroke-width="2"/>
<ellipse cx="283.175" cy="270.702" rx="34.807" ry="34.386" fill="white"/>
<path d="M296.228 270.702L276.649 281.869V259.535L296.228 270.702Z" fill="#2836B1"/>
<g filter="url(#filter1_d_464_3)">
<path fill-rule="evenodd" clip-rule="evenodd" d="M286.05 503.432C276.432 480.137 284.21 452.837 301.341 430.628C318.944 407.807 375.608 371.885 405.907 369.743C434.888 367.694 439.243 369.408 455.662 388.677C469.893 405.38 479.491 472.55 474.629 494.279C469.79 515.91 466.069 535.658 444.038 547.759C421.747 560.003 370.425 546.636 346.815 540.76C321.251 534.397 294.987 525.076 286.05 503.432Z" fill="#1B2688"/>
</g>
<g filter="url(#filter2_d_464_3)">
<path fill-rule="evenodd" clip-rule="evenodd" d="M255.176 507.001C238.704 467.942 253.888 421.398 285.797 383.099C318.586 343.743 422.615 280.624 477.551 275.773C530.098 271.133 537.914 273.858 566.857 305.826C591.946 333.535 606.608 446.892 596.929 483.885C587.295 520.71 579.762 554.301 539.39 575.683C498.542 597.317 406.174 576.754 363.67 567.757C317.649 558.016 270.48 543.292 255.176 507.001Z" fill="#1A2162"/>
</g>
<rect width="60.8877" height="40.0523" rx="20" transform="matrix(0.916065 -0.401029 0.289638 0.957136 435.465 395.8)" fill="white"/>
<path d="M340.922 440.483C337.429 427.754 347.009 415.192 360.209 415.192H443.698C456.413 415.192 465.901 426.901 463.263 439.34L450.121 501.329C448.162 510.571 440.003 517.181 430.556 517.181H377.217C368.209 517.181 360.313 511.16 357.93 502.473L340.922 440.483Z" fill="white"/>
<rect x="490.006" y="404.993" width="50.0292" height="20.3979" rx="5" fill="#1B2688"/>
<rect x="319.143" y="486.074" width="60.1738" height="16.9591" rx="5" transform="rotate(-90 319.143 486.074)" fill="#1B2688"/>
<rect width="8.49391" height="40.7479" rx="4.24695" transform="matrix(0.994509 0.104651 -0.0725475 0.997365 552.553 314.693)" fill="#1B2688"/>
<rect x="540.035" y="315.06" width="8.47953" height="40.7958" rx="4.23977" fill="#1B2688"/>
<rect width="8.49391" height="40.7479" rx="4.24695" transform="matrix(0.994509 -0.104651 0.0725475 0.997365 527.55 315.582)" fill="#1B2688"/>
<rect width="6.95859" height="40.0523" rx="3.4793" transform="matrix(0.916065 -0.401029 0.289638 0.957136 514.936 339.103)" fill="#1B2688"/>
<rect x="385.708" y="402.953" width="29.6784" height="12.2387" fill="#62D96E" fill-opacity="0.5"/>
<rect x="367.053" y="312" width="67.8363" height="81.5916" rx="25" fill="white"/>
<rect x="375.532" y="322.199" width="50.8772" height="61.1937" rx="20" fill="#1B2688"/>
<path d="M461.576 384.205L477.513 377.228L483.694 397.654C485.085 402.252 482.646 407.541 478.245 409.468C473.844 411.394 469.149 409.229 467.758 404.631L461.576 384.205Z" fill="#62D96E" fill-opacity="0.5"/>
<rect x="306" y="404.993" width="59.3567" height="40.7958" rx="20" fill="white"/>
<rect x="310.24" y="546.758" width="71.3926" height="33.9181" rx="16.9591" transform="rotate(-90 310.24 546.758)" fill="white"/>
<rect x="379.772" y="529.602" width="42.3977" height="20.3979" rx="10.1989" fill="white"/>
<path d="M325.503 404.993H342.462V427.11C342.462 431.793 338.666 435.59 333.982 435.59C329.299 435.59 325.503 431.793 325.503 427.11V404.993Z" fill="#62D96E" fill-opacity="0.5"/>
<path d="M524.072 355.405C524.873 344.388 534.428 336.395 545.413 337.551L559.312 339.013L554.632 403.351C553.951 412.709 545.836 419.498 536.505 418.516C527.174 417.535 520.162 409.153 520.843 399.796L524.072 355.405Z" fill="white"/>
<ellipse cx="556.146" cy="326.279" rx="3.39181" ry="4.07958" fill="white"/>
<ellipse cx="544.275" cy="326.279" rx="3.39181" ry="4.07958" fill="white"/>
<ellipse cx="533.251" cy="326.279" rx="3.39181" ry="4.07958" fill="white"/>
<ellipse cx="392.491" cy="341.577" rx="3.39181" ry="4.07958" fill="#6A92F8"/>
<ellipse cx="410.298" cy="341.577" rx="3.39181" ry="4.07958" fill="#6A92F8"/>
<path d="M392.491 356.875H409.45V358.595C409.45 363.278 405.654 367.074 400.971 367.074C396.288 367.074 392.491 363.278 392.491 358.595V356.875Z" fill="#6A92F8"/>
<path d="M408.95 444.769C408.95 450.216 405.295 454.468 400.971 454.468C396.646 454.468 392.991 450.216 392.991 444.769C392.991 439.322 396.646 435.07 400.971 435.07C405.295 435.07 408.95 439.322 408.95 444.769Z" fill="#6A92F8" stroke="black"/>
<path d="M358.11 507.587C354.07 497.535 361.471 486.584 372.305 486.584H436.934C448.075 486.584 455.48 498.112 450.847 508.245C448.357 513.689 442.92 517.181 436.934 517.181H372.305C366.058 517.181 360.439 513.383 358.11 507.587Z" fill="#6A92F8"/>
<ellipse cx="401.819" cy="488.624" rx="16.9591" ry="20.3979" fill="#6A92F8"/>
<path d="M384.704 486.907C381.504 497.479 370.708 502.459 360.59 498.029L355.006 495.585L369.507 447.666L375.09 450.11C385.209 454.539 390.818 466.701 387.619 477.273L384.704 486.907Z" fill="white"/>
<path d="M415.243 473.785C412.044 463.212 417.653 451.051 427.772 446.621L432.162 444.699C437.222 442.485 442.62 444.974 444.219 450.26L454.376 483.823C455.175 486.466 453.773 489.506 451.243 490.614L442.272 494.541C432.154 498.97 421.358 493.991 418.158 483.419L415.243 473.785Z" fill="white"/>
<defs>
<filter id="filter0_dd_464_3" x="225" y="1" width="284.045" height="77.1469" filterUnits="userSpaceOnUse" color-interpolation-filters="sRGB">
<feFlood flood-opacity="0" result="BackgroundImageFix"/>
<feColorMatrix in="SourceAlpha" type="matrix" values="0 0 0 0 0 0 0 0 0 0 0 0 0 0 0 0 0 0 127 0" result="hardAlpha"/>
<feOffset dy="4"/>
<feGaussianBlur stdDeviation="2"/>
<feColorMatrix type="matrix" values="0 0 0 0 0.106667 0 0 0 0 0.150268 0 0 0 0 0.533333 0 0 0 1 0"/>
<feBlend mode="normal" in2="BackgroundImageFix" result="effect1_dropShadow_464_3"/>
<feColorMatrix in="SourceAlpha" type="matrix" values="0 0 0 0 0 0 0 0 0 0 0 0 0 0 0 0 0 0 127 0" result="hardAlpha"/>
<feOffset dy="4"/>
<feGaussianBlur stdDeviation="2"/>
<feColorMatrix type="matrix" values="0 0 0 0 0.153125 0 0 0 0 0.190313 0 0 0 0 0.525 0 0 0 1 0"/>
<feBlend mode="normal" in2="effect1_dropShadow_464_3" result="effect2_dropShadow_464_3"/>
<feBlend mode="normal" in="SourceGraphic" in2="effect2_dropShadow_464_3" result="shape"/>
</filter>
<filter id="filter1_d_464_3" x="277.873" y="369.076" width="202.033" height="191.683" filterUnits="userSpaceOnUse" color-interpolation-filters="sRGB">
<feFlood flood-opacity="0" result="BackgroundImageFix"/>
<feColorMatrix in="SourceAlpha" type="matrix" values="0 0 0 0 0 0 0 0 0 0 0 0 0 0 0 0 0 0 127 0" result="hardAlpha"/>
<feOffset dy="4"/>
<feGaussianBlur stdDeviation="2"/>
<feColorMatrix type="matrix" values="0 0 0 0 0 0 0 0 0 0 0 0 0 0 0 0 0 0 0.25 0"/>
<feBlend mode="normal" in2="BackgroundImageFix" result="effect1_dropShadow_464_3"/>
<feBlend mode="normal" in="SourceGraphic" in2="effect1_dropShadow_464_3" result="shape"/>
</filter>
<filter id="filter2_d_464_3" x="244.457" y="274.006" width="359.478" height="319.246" filterUnits="userSpaceOnUse" color-interpolation-filters="sRGB">
<feFlood flood-opacity="0" result="BackgroundImageFix"/>
<feColorMatrix in="SourceAlpha" type="matrix" values="0 0 0 0 0 0 0 0 0 0 0 0 0 0 0 0 0 0 127 0" result="hardAlpha"/>
<feOffset dy="4"/>
<feGaussianBlur stdDeviation="2"/>
<feColorMatrix type="matrix" values="0 0 0 0 0 0 0 0 0 0 0 0 0 0 0 0 0 0 0.15 0"/>
<feBlend mode="normal" in2="BackgroundImageFix" result="effect1_dropShadow_464_3"/>
<feBlend mode="normal" in="SourceGraphic" in2="effect1_dropShadow_464_3" result="shape"/>
</filter>
</defs>
</svg>
