<svg width="70" height="70" viewBox="0 0 70 70" fill="none" xmlns="http://www.w3.org/2000/svg">
<rect width="70" height="70" fill="#E5E5E5"/>
<g clip-path="url(#clip0_0_1)">
<rect x="-685" y="-1393" width="1440" height="5500" rx="10" fill="white"/>
<rect x="-685" y="-486" width="1440" height="1000" fill="#2836B1" fill-opacity="0.1"/>
<circle cx="35" cy="35" r="35" fill="white"/>
<path d="M40.9007 38.4552L37.777 41.5842L34.815 44.5497L34.2366 45.1338C33.4246 45.9448 32.4171 46.5321 31.3117 46.8385C30.2063 47.1449 29.0406 47.1601 27.9276 46.8827C27.7024 47.8415 27.1335 48.6843 26.3289 49.2512C25.5242 49.8181 24.5398 50.0696 23.5622 49.9581C22.5847 49.8465 21.682 49.3797 21.0254 48.6461C20.3688 47.9125 20.0039 46.9632 20 45.9782C20 44.0791 21.3202 42.4871 23.087 42.0699C22.8017 40.9493 22.8126 39.7737 23.1186 38.6586C23.4246 37.5436 24.0151 36.5274 24.8322 35.7101L25.0572 35.4848L28.0192 38.4519L27.7892 38.6772C27.3271 39.1403 27.0675 39.7681 27.0675 40.4228C27.0675 41.0774 27.3271 41.7052 27.7892 42.1683C28.0162 42.4005 28.2871 42.585 28.5862 42.711C28.8854 42.8369 29.2066 42.9018 29.5311 42.9018C29.8556 42.9018 30.1768 42.8369 30.4759 42.711C30.775 42.585 31.046 42.4005 31.2729 42.1683L31.8547 41.5859L34.8133 38.6188L37.942 35.4831L40.9007 38.4552ZM42.0558 46.7792C40.9008 47.1372 39.6702 47.1728 38.4964 46.8822C37.3227 46.5917 36.2504 45.986 35.3951 45.1304L35.1701 44.8985L38.1254 41.933L38.3504 42.165C38.8128 42.6266 39.4392 42.8858 40.0923 42.8858C40.7453 42.8858 41.3717 42.6266 41.8341 42.165C42.0624 41.9363 42.2435 41.6648 42.3669 41.366C42.4903 41.0672 42.5536 40.747 42.5533 40.4237C42.553 40.1004 42.489 39.7803 42.3651 39.4818C42.2411 39.1833 42.0595 38.9121 41.8308 38.6839L41.2474 38.1015L38.2921 35.136L35.1634 32.002L38.1254 29.0382L41.2507 32.1739L44.2077 35.1393L44.7895 35.7217C45.6015 36.527 46.1909 37.5294 46.5 38.631C46.8091 39.7326 46.8274 40.8957 46.553 42.0064C47.5575 42.1495 48.4705 42.6683 49.1083 43.4583C49.7461 44.2484 50.0612 45.251 49.9902 46.2643C49.9192 47.2776 49.4673 48.2263 48.7257 48.9195C47.984 49.6126 47.0076 49.9987 45.9929 50C45.0691 50.0024 44.1731 49.6835 43.4581 49.0979C42.743 48.5123 42.2533 47.6963 42.0725 46.7892L42.0558 46.7792ZM28.7193 31.8234L31.8547 28.6878L34.8167 25.7223L35.3951 25.1449C36.2392 24.2971 37.2969 23.694 38.4558 23.3996C39.6148 23.1051 40.8317 23.1304 41.9775 23.4728C42.0796 22.7307 42.3868 22.032 42.8645 21.4554C43.3421 20.8789 43.9713 20.4475 44.6808 20.2099C45.3904 19.9724 46.1522 19.9381 46.8802 20.111C47.6082 20.2839 48.2734 20.6571 48.8008 21.1884C49.3282 21.7197 49.6968 22.3881 49.8649 23.118C50.033 23.8479 49.994 24.6104 49.7523 25.3193C49.5106 26.0282 49.0757 26.6553 48.4969 27.1299C47.918 27.6045 47.2182 27.9077 46.4763 28.0052C46.807 29.1482 46.8249 30.3591 46.5282 31.5113C46.2314 32.6636 45.6309 33.7149 44.7895 34.5553L44.5611 34.7872L41.5991 31.8218L41.8308 31.5915C42.059 31.3629 42.24 31.0916 42.3635 30.793C42.4869 30.4944 42.5504 30.1743 42.5503 29.8512C42.5503 29.528 42.4866 29.208 42.363 28.9094C42.2394 28.6109 42.0583 28.3397 41.83 28.1112C41.6017 27.8827 41.3307 27.7015 41.0324 27.5779C40.7341 27.4543 40.4145 27.3907 40.0917 27.3908C39.7689 27.3909 39.4493 27.4546 39.1511 27.5784C38.8529 27.7021 38.5819 27.8835 38.3537 28.112L37.7753 28.6894L34.8133 31.6532L31.6813 34.7839L28.7193 31.8234ZM25.4023 35.1343L24.8255 34.5553C23.9767 33.7059 23.3736 32.6421 23.0804 31.4771C22.7872 30.312 22.8148 29.0891 23.1604 27.9385C22.2735 27.7347 21.4818 27.236 20.9145 26.5237C20.3472 25.8115 20.0377 24.9278 20.0367 24.0168C20.038 22.9516 20.4614 21.9304 21.2138 21.1774C21.9663 20.4243 22.9865 20.0009 24.0505 20C26.0457 20 27.7009 21.4602 28.0142 23.3693C29.1164 23.1096 30.2666 23.1359 31.3558 23.4457C32.445 23.7556 33.4372 24.3387 34.2383 25.1399L34.4683 25.3735L31.5046 28.3373L31.2763 28.1104C30.8138 27.6501 30.1882 27.3918 29.5361 27.3918C28.884 27.3918 28.2584 27.6501 27.7959 28.1104C27.3333 28.5728 27.0728 29.2001 27.0715 29.8545C27.0703 30.509 27.3284 31.1373 27.7892 31.6015L28.3709 32.1856L31.333 35.151L34.465 38.2867L31.5063 41.2521L28.3676 38.1165L25.4039 35.151V35.1343H25.4023Z" fill="#6A92F8"/>
</g>
<defs>
<clipPath id="clip0_0_1">
<rect x="-685" y="-1393" width="1440" height="5500" rx="10" fill="white"/>
</clipPath>
</defs>
</svg>
