<svg width="60" height="60" viewBox="0 0 60 60" fill="none" xmlns="http://www.w3.org/2000/svg">
<rect width="60" height="60" fill="#E5E5E5"/>
<g clip-path="url(#clip0_0_1)">
<rect x="-690" y="-986" width="1440" height="5500" rx="10" fill="white"/>
<path d="M-724 266L1116.3 -137.5H-2564.3L-724 266Z" fill="#1B2688"/>
<rect x="-690" y="-79" width="1440" height="1000" fill="#2836B1" fill-opacity="0.1"/>
<rect x="-120" y="-21" width="300" height="300" rx="10" fill="white"/>
<circle cx="30" cy="30" r="30" fill="#6A92F8" fill-opacity="0.4"/>
<path d="M35.9007 33.4552L32.777 36.5842L29.815 39.5497L29.2366 40.1338C28.4246 40.9448 27.4171 41.5321 26.3117 41.8385C25.2063 42.1449 24.0406 42.1601 22.9276 41.8827C22.7024 42.8415 22.1335 43.6843 21.3289 44.2512C20.5242 44.8181 19.5398 45.0696 18.5622 44.9581C17.5847 44.8465 16.682 44.3797 16.0254 43.6461C15.3688 42.9125 15.0039 41.9632 15 40.9782C15 39.0791 16.3202 37.4871 18.087 37.0699C17.8017 35.9493 17.8126 34.7737 18.1186 33.6586C18.4246 32.5436 19.0151 31.5274 19.8322 30.7101L20.0572 30.4848L23.0192 33.4519L22.7892 33.6772C22.3271 34.1403 22.0675 34.7681 22.0675 35.4228C22.0675 36.0774 22.3271 36.7052 22.7892 37.1683C23.0162 37.4005 23.2871 37.585 23.5862 37.711C23.8854 37.8369 24.2066 37.9018 24.5311 37.9018C24.8556 37.9018 25.1768 37.8369 25.4759 37.711C25.775 37.585 26.046 37.4005 26.2729 37.1683L26.8547 36.5859L29.8133 33.6188L32.942 30.4831L35.9007 33.4552ZM37.0558 41.7792C35.9008 42.1372 34.6702 42.1728 33.4964 41.8822C32.3227 41.5917 31.2504 40.986 30.3951 40.1304L30.1701 39.8985L33.1254 36.933L33.3504 37.165C33.8128 37.6266 34.4392 37.8858 35.0923 37.8858C35.7453 37.8858 36.3717 37.6266 36.8341 37.165C37.0624 36.9363 37.2435 36.6648 37.3669 36.366C37.4903 36.0672 37.5536 35.747 37.5533 35.4237C37.553 35.1004 37.489 34.7803 37.3651 34.4818C37.2411 34.1833 37.0595 33.9121 36.8308 33.6839L36.2474 33.1015L33.2921 30.136L30.1634 27.002L33.1254 24.0382L36.2507 27.1739L39.2077 30.1393L39.7895 30.7217C40.6015 31.527 41.1909 32.5294 41.5 33.631C41.8091 34.7326 41.8274 35.8957 41.553 37.0064C42.5575 37.1495 43.4705 37.6683 44.1083 38.4583C44.7461 39.2484 45.0612 40.251 44.9902 41.2643C44.9192 42.2776 44.4673 43.2263 43.7257 43.9195C42.984 44.6126 42.0076 44.9987 40.9929 45C40.0691 45.0024 39.1731 44.6835 38.4581 44.0979C37.743 43.5123 37.2533 42.6963 37.0725 41.7892L37.0558 41.7792ZM23.7193 26.8234L26.8547 23.6878L29.8167 20.7223L30.3951 20.1449C31.2392 19.2971 32.2969 18.694 33.4558 18.3996C34.6148 18.1051 35.8317 18.1304 36.9775 18.4728C37.0796 17.7307 37.3868 17.032 37.8645 16.4554C38.3421 15.8789 38.9713 15.4475 39.6808 15.2099C40.3904 14.9724 41.1522 14.9381 41.8802 15.111C42.6082 15.2839 43.2734 15.6571 43.8008 16.1884C44.3282 16.7197 44.6968 17.3881 44.8649 18.118C45.033 18.8479 44.994 19.6104 44.7523 20.3193C44.5106 21.0282 44.0757 21.6553 43.4969 22.1299C42.918 22.6045 42.2182 22.9077 41.4763 23.0052C41.807 24.1482 41.8249 25.3591 41.5282 26.5113C41.2314 27.6636 40.6309 28.7149 39.7895 29.5553L39.5611 29.7872L36.5991 26.8218L36.8308 26.5915C37.059 26.3629 37.24 26.0916 37.3635 25.793C37.4869 25.4944 37.5504 25.1743 37.5503 24.8512C37.5503 24.528 37.4866 24.208 37.363 23.9094C37.2394 23.6109 37.0583 23.3397 36.83 23.1112C36.6017 22.8827 36.3307 22.7015 36.0324 22.5779C35.7341 22.4543 35.4145 22.3907 35.0917 22.3908C34.7689 22.3909 34.4493 22.4546 34.1511 22.5784C33.8529 22.7021 33.5819 22.8835 33.3537 23.112L32.7753 23.6894L29.8133 26.6532L26.6813 29.7839L23.7193 26.8234ZM20.4023 30.1343L19.8255 29.5553C18.9767 28.7059 18.3736 27.6421 18.0804 26.4771C17.7872 25.312 17.8148 24.0891 18.1604 22.9385C17.2735 22.7347 16.4818 22.236 15.9145 21.5237C15.3472 20.8115 15.0377 19.9278 15.0367 19.0168C15.038 17.9516 15.4614 16.9304 16.2138 16.1774C16.9663 15.4243 17.9865 15.0009 19.0505 15C21.0457 15 22.7009 16.4602 23.0142 18.3693C24.1164 18.1096 25.2666 18.1359 26.3558 18.4457C27.445 18.7556 28.4372 19.3387 29.2383 20.1399L29.4683 20.3735L26.5046 23.3373L26.2763 23.1104C25.8138 22.6501 25.1882 22.3918 24.5361 22.3918C23.884 22.3918 23.2584 22.6501 22.7959 23.1104C22.3333 23.5728 22.0728 24.2001 22.0715 24.8545C22.0703 25.509 22.3284 26.1373 22.7892 26.6015L23.3709 27.1856L26.333 30.151L29.465 33.2867L26.5063 36.2521L23.3676 33.1165L20.4039 30.151V30.1343H20.4023Z" fill="#6A92F8"/>
</g>
<defs>
<clipPath id="clip0_0_1">
<rect x="-690" y="-986" width="1440" height="5500" rx="10" fill="white"/>
</clipPath>
</defs>
</svg>
