<svg width="50" height="40" viewBox="0 0 50 40" fill="none" xmlns="http://www.w3.org/2000/svg">
<path d="M26.7928 24.9571L36.5185 0.5H49.5V0.631685L45.6819 4.32294C45.4529 4.50518 45.2757 4.74471 45.168 5.01732C45.0618 5.28598 45.0267 5.57741 45.0657 5.86319V34.1368C45.0267 34.4226 45.0618 34.714 45.168 34.9827C45.2753 35.2543 45.4516 35.4931 45.6794 35.6751L49.4074 39.3649V39.5H30.7977V39.3667L34.6895 35.5635L34.6896 35.5636L34.695 35.558C34.9028 35.3486 35.0745 35.1471 35.1614 34.8708C35.2343 34.6392 35.234 34.3845 35.2337 34.1294C35.2337 34.1131 35.2337 34.0967 35.2337 34.0804V11.1723L34.268 10.9903L23.1551 39.4266H22.2985L9.36523 10.9654L8.41002 11.1723V30.4084C8.28814 31.355 8.60342 32.3001 9.26065 32.984L14.3859 39.2496V39.415H0.5V39.2594L5.62695 32.9819C6.27132 32.2982 6.57863 31.3414 6.42292 30.399V8.18362C6.45536 7.80991 6.40267 7.43347 6.26862 7.08303C6.13599 6.73629 5.92719 6.42409 5.65771 6.16986L1.13017 0.664563V0.5H14.7998L25.8726 24.9785L26.3578 26.051L26.7928 24.9571Z" fill="white" stroke="#C4C4C4"/>
</svg>
