<svg width="50" height="42" viewBox="0 0 50 42" fill="none" xmlns="http://www.w3.org/2000/svg">
<path d="M49.9011 5.52034C48.0297 6.343 46.0476 6.8863 44.0183 7.13284C46.1574 5.84893 47.7589 3.83337 48.5261 1.4594C46.5028 2.63284 44.3006 3.46631 42.0074 3.92659C40.4652 2.27887 38.4224 1.18616 36.1958 0.817991C33.9693 0.449826 31.6834 0.826787 29.693 1.89039C27.7025 2.954 26.1187 4.64478 25.1873 6.70041C24.2559 8.75605 24.029 11.0616 24.5417 13.2594C16.0214 12.861 8.46829 8.76721 3.41673 2.58284C2.49716 4.14672 2.01622 5.92959 2.02454 7.74377C2.02329 9.43028 2.43852 11.091 3.23335 12.5785C4.02819 14.0659 5.17804 15.3341 6.58079 16.2703C4.9552 16.2212 3.36502 15.7835 1.94329 14.9938V15.1172C1.94279 17.4844 2.76081 19.779 4.25869 21.6121C5.75657 23.4451 7.84218 24.7039 10.162 25.175C9.28328 25.4098 8.37787 25.5301 7.46829 25.5328C6.81048 25.5328 6.18235 25.4688 5.55579 25.3531C6.21599 27.3902 7.49486 29.1708 9.2144 30.447C10.9339 31.7232 13.0086 32.4316 15.1495 32.4735C11.5221 35.3143 7.04608 36.8554 2.4386 36.85C1.62252 36.8533 0.806981 36.8073 -0.00358391 36.7125C4.69656 39.7242 10.1626 41.3229 15.7449 41.3188C34.5995 41.3188 44.9027 25.7016 44.9027 12.1766C44.9027 11.7453 44.9027 11.3063 44.8699 10.8657C46.8853 9.42119 48.6222 7.62338 49.9964 5.5594L49.9011 5.52034Z" fill="white"/>
</svg>
